<?xml version="1.0" encoding="UTF-8" standalone="no"?>
<!DOCTYPE svg PUBLIC "-//W3C//DTD SVG 1.1//EN" "http://www.w3.org/Graphics/SVG/1.1/DTD/svg11.dtd">
<svg width="100%" height="100%" viewBox="0 0 700 222" version="1.1" xmlns="http://www.w3.org/2000/svg" xmlns:xlink="http://www.w3.org/1999/xlink" xml:space="preserve" xmlns:serif="http://www.serif.com/" style="fill-rule:evenodd;clip-rule:evenodd;stroke-linejoin:round;stroke-miterlimit:2;">
    <g id="Logo" transform="matrix(0.364375,0,0,0.205,0,0)">
        <rect x="0" y="0" width="1920" height="1080" style="fill:none;"/>
        <g id="Logotype" transform="matrix(2.744425,0,0,4.878049,-191.546992,255.342898)">
            <path d="M135.715,103.175L135.715,13.575L158.755,13.575L184.867,67.463L210.723,13.575L233.635,13.575L233.635,103.175L214.435,103.175L214.435,45.959L192.419,90.631L177.059,90.631L154.915,45.959L154.915,103.175L135.715,103.175Z" style="fill:rgb(49,44,133);fill-rule:nonzero;"/>
            <path d="M261.227,75.655C261.415,77.919 261.967,79.967 262.883,81.799C264.035,84.103 265.699,85.895 267.875,87.175C270.051,88.455 272.632,89.095 275.619,89.095C278.435,89.095 280.76,88.519 282.595,87.367C284.43,86.215 285.859,84.743 286.883,82.951L306.467,82.951C305.272,87.047 303.224,90.737 300.323,94.023C297.422,97.308 293.88,99.911 289.699,101.831C285.518,103.751 280.91,104.711 275.875,104.711C269.219,104.711 263.374,103.324 258.339,100.551C253.304,97.777 249.358,93.895 246.499,88.903C243.64,83.911 242.211,78.172 242.211,71.687C242.211,65.031 243.619,59.1 246.435,53.895C249.251,48.689 253.176,44.593 258.211,41.607C263.246,38.62 269.091,37.127 275.747,37.127C282.232,37.127 287.907,38.535 292.771,41.351C297.635,44.167 301.454,47.985 304.227,52.807C307,57.628 308.387,63.196 308.387,69.511C308.387,70.364 308.366,71.324 308.323,72.391C308.28,73.457 308.174,74.545 308.003,75.655L261.227,75.655ZM261.677,64.519L288.803,64.519C288.632,60.935 287.331,58.055 284.899,55.879C282.467,53.703 279.459,52.615 275.875,52.615C273.144,52.615 270.67,53.255 268.451,54.535C266.232,55.815 264.462,57.735 263.139,60.295C262.495,61.541 262.008,62.949 261.677,64.519Z" style="fill:rgb(49,44,133);fill-rule:nonzero;"/>
            <path d="M316.067,103.175L316.067,38.663L332.835,38.663L334.499,46.983C336.547,43.996 339.256,41.607 342.627,39.815C345.998,38.023 349.902,37.127 354.339,37.127C357.496,37.127 360.355,37.532 362.915,38.343C365.475,39.153 367.736,40.348 369.699,41.927C371.662,43.505 373.283,45.489 374.563,47.879C377.038,44.551 380.195,41.927 384.035,40.007C387.875,38.087 392.056,37.127 396.579,37.127C402.382,37.127 407.182,38.279 410.979,40.583C414.776,42.887 417.614,46.215 419.491,50.567C421.368,54.919 422.307,60.209 422.307,66.439L422.307,103.175L403.235,103.175L403.235,68.103C403.235,63.409 402.318,59.761 400.483,57.159C398.648,54.556 395.726,53.255 391.715,53.255C389.155,53.255 386.894,53.895 384.931,55.175C382.968,56.455 381.454,58.247 380.387,60.551C379.32,62.855 378.787,65.628 378.787,68.871L378.787,103.175L359.715,103.175L359.715,68.103C359.715,63.409 358.776,59.761 356.899,57.159C355.022,54.556 351.992,53.255 347.811,53.255C345.422,53.255 343.267,53.895 341.347,55.175C339.427,56.455 337.934,58.247 336.867,60.551C335.8,62.855 335.267,65.628 335.267,68.871L335.267,103.175L316.067,103.175Z" style="fill:rgb(49,44,133);fill-rule:nonzero;"/>
            <path d="M431.907,103.175L431.907,38.663L448.931,38.663L450.723,50.439C452.43,47.708 454.435,45.361 456.739,43.399C459.043,41.436 461.71,39.9 464.739,38.791C467.768,37.681 471.032,37.127 474.531,37.127L474.531,57.479L468.131,57.479C465.571,57.479 463.246,57.756 461.155,58.311C459.064,58.865 457.272,59.783 455.779,61.063C454.286,62.343 453.134,64.071 452.323,66.247C451.512,68.423 451.107,71.132 451.107,74.375L451.107,103.175L431.907,103.175Z" style="fill:rgb(49,44,133);fill-rule:nonzero;"/>
            <path d="M510.243,104.711C504.014,104.711 498.424,103.26 493.475,100.359C488.526,97.457 484.6,93.468 481.699,88.391C478.798,83.313 477.347,77.532 477.347,71.047C477.347,64.391 478.798,58.524 481.699,53.447C484.6,48.369 488.547,44.38 493.539,41.479C498.531,38.577 504.099,37.127 510.243,37.127C516.558,37.127 522.19,38.577 527.139,41.479C532.088,44.38 536.014,48.369 538.915,53.447C541.816,58.524 543.267,64.348 543.267,70.919C543.267,77.489 541.816,83.313 538.915,88.391C536.014,93.468 532.088,97.457 527.139,100.359C522.19,103.26 516.558,104.711 510.243,104.711ZM510.243,88.071C512.803,88.071 515.086,87.431 517.091,86.151C519.096,84.871 520.696,82.951 521.891,80.391C523.086,77.831 523.683,74.673 523.683,70.919C523.683,67.164 523.086,64.007 521.891,61.447C520.696,58.887 519.118,56.967 517.155,55.687C515.192,54.407 512.931,53.767 510.371,53.767C507.811,53.767 505.528,54.407 503.523,55.687C501.518,56.967 499.918,58.887 498.723,61.447C497.528,64.007 496.931,67.164 496.931,70.919C496.931,74.673 497.528,77.831 498.723,80.391C499.918,82.951 501.518,84.871 503.523,86.151C505.528,87.431 507.768,88.071 510.243,88.071Z" style="fill:rgb(49,44,133);fill-rule:nonzero;"/>
            <path d="M570.787,71.583L570.787,103.175L551.587,103.175L551.587,38.663L570.787,38.663L570.787,64.376L613.044,13.575L635.7,13.575L588.959,68.387L618.403,103.175L594.595,103.175L570.787,71.583Z" style="fill:rgb(49,44,133);fill-rule:nonzero;"/>
            <g transform="matrix(1,0,0,1,33.881605,0)">
                <path d="M567.937,67.802L613.044,13.575L635.7,13.575L588.959,68.387L618.403,103.175L594.595,103.175L567.937,67.802Z" style="fill:rgb(124,134,255);fill-rule:nonzero;"/>
            </g>
            <g transform="matrix(1,0,0,1,67.76321,0)">
                <path d="M567.937,67.802L613.044,13.575L635.7,13.575L588.959,68.387L618.403,103.175L594.595,103.175L567.937,67.802Z" style="fill:rgb(163,179,255);fill-rule:nonzero;"/>
            </g>
        </g>
    </g>
</svg>
